<svg version="1.1" class="main_logo" xmlns="http://www.w3.org/2000/svg" xmlns:xlink="http://www.w3.org/1999/xlink" x="0px" y="0px" viewBox="0 0 197.6 35.3" style="enable-background:new 0 0 197.6 35.3;" xml:space="preserve">
    <defs>
        <style>
            path{
                fill: #fff;
            }
        </style>
    </defs>
    <path d="M19.4,23.5l0-22.1c0-0.9,0.8-1.6,1.7-1.4c8.3,1.5,14.5,8.8,14.5,17.5c0,5.1-2.2,9.7-5.6,13
        c-0.5,0.5-1.3,0.1-1.3-0.6l0-16.1c0-0.8-0.6-1.4-1.4-1.4H27c-0.8,0-1.4,0.6-1.4,1.4l0,17.6c0,1.3-0.9,2.5-2.1,2.9
        c-1.8,0.6-3.7,0.9-5.7,0.9c-2,0-3.9-0.3-5.7-0.9C10.9,34,10,32.8,10,31.5l0-17.6c0-0.8-0.6-1.4-1.4-1.4H8.3c-0.8,0-1.4,0.6-1.4,1.4
        l0,16.1c0,0.7-0.8,1-1.3,0.6C2.2,27.3,0,22.6,0,17.5C0,8.8,6.3,1.5,14.6,0c0.9-0.2,1.7,0.5,1.7,1.4l0,22.1c0,0.8,0.6,1.4,1.4,1.4
        h0.2C18.7,24.9,19.4,24.3,19.4,23.5z"/>
    <g>
        <path d="M57.7,25.8l0-12.1l-5.1,10.4h-1.8l-5.1-10.4v12.1h-2.6V9.6h3.2l5.3,10.8L57,9.6h3.2v16.2H57.7z"/>
        <path d="M67.3,22.1l-1.6,3.7h-2.8L70,9.6h2.8l7.1,16.2H77l-1.6-3.7H67.3z M71.4,12.5l-3.1,7.2h6.1L71.4,12.5z"/>
        <path d="M86.9,12v13.8h-2.7V12H79V9.6h13V12H86.9z"/>
        <path d="M97.6,12v4.4h7.9v2.5h-7.9v4.5h9.1v2.5H94.8V9.6h11.6V12H97.6z"/>
        <path d="M117.8,20.9c-0.2,0-0.5,0-0.7,0h-3.8v4.9h-2.7V9.6h6.6c4.1,0,6.5,2,6.5,5.5c0,2.6-1.2,4.4-3.4,5.3l3.6,5.4 h-3.1L117.8,20.9z M117.1,18.4c2.5,0,3.9-1.1,3.9-3.3c0-2.1-1.4-3.1-3.9-3.1h-3.8v6.4H117.1z"/>
        <path d="M127.7,25.8V9.6h2.7v16.2H127.7z"/>
        <path d="M137.4,22.1l-1.6,3.7H133l7.2-16.2h2.8l7.1,16.2h-2.9l-1.6-3.7H137.4z M141.5,12.5l-3.1,7.2h6.1L141.5,12.5z"/>
        <path d="M163,22.6v3.2h-10.6V9.6h3.7v13H163z"/>
        <path d="M168.9,22.6l-1.3,3.1h-3.8l7-16.2h3.8l6.9,16.2h-3.9l-1.3-3.1H168.9z M172.7,13.4l-2.6,6.3h5.1L172.7,13.4z"/>
        <path d="M191.2,9.6c3.6,0,5.8,1.6,5.8,4.1c0,1.8-1.1,3.1-2.8,3.6c2.1,0.4,3.4,2,3.4,4.1c0,2.8-2.3,4.5-6.1,4.5h-7.7 V9.6H191.2z M187.4,16.1h3.6c1.4,0,2.2-0.7,2.2-1.8c0-1.1-0.9-1.7-2.2-1.7h-3.6V16.1z M187.4,22.8h3.6c1.7,0,2.8-0.7,2.8-2 c0-1.2-1-1.9-2.8-1.9h-3.6V22.8z"/>
    </g>
</svg>
