<svg data-name="process_bg" xmlns="http://www.w3.org/2000/svg" viewBox="0 0 333.55567 24.00321">=
    <path class="cls-1" d="M750.73053,389.13354l-8.385,3.48566a0.173,0.173,0,0,0-.0636.2738l1.47552,1.68121-9.81116,8.33105a20.62671,20.62671,0,0,1-25.18848,1.165L688.041,389.541a21.62428,21.62428,0,0,0-25.12207.21l-20.418,14.832a20.62388,20.62388,0,0,1-23.959.2002l-21.708-15.22266a21.61858,21.61858,0,0,0-25.15723.23438l-20.375,14.86621a20.60915,20.60915,0,0,1-24.02832.2002L505.584,389.585a21.61741,21.61741,0,0,0-25.15771.18457L460.03467,404.583a20.62468,20.62468,0,0,1-23.95947.2002l-12.00232-8.41687-2.86786-5.399a0.173,0.173,0,0,0-.32471.06262L420.553,394.0636a0.173,0.173,0,0,1-.11548.145l-2.90613,1.00409a0.173,0.173,0,0,0,.01062.33026l5.95081,1.6377,12.00812,8.421a21.62352,21.62352,0,0,0,25.12158-.21l20.39111-14.81348a20.61785,20.61785,0,0,1,23.99414-.1748l21.68945,15.27637a21.61469,21.61469,0,0,0,25.19434-.21l20.375-14.86621a20.6135,20.6135,0,0,1,23.99316-.22461l21.708,15.22266a21.62277,21.62277,0,0,0,25.12109-.21l20.418-14.832a20.62864,20.62864,0,0,1,23.96-.2002l20.7168,14.5293a21.6269,21.6269,0,0,0,26.40918-1.22168l9.82385-8.3418,1.70624,1.944a0.17292,0.17292,0,0,0,.27972-0.02753l4.54407-7.86188A0.173,0.173,0,0,0,750.73053,389.13354Z" transform="translate(-417.41495 -385.62276)"/>
</svg>